<svg xmlns="http://www.w3.org/2000/svg" xmlns:xlink="http://www.w3.org/1999/xlink" width="77" zoomAndPan="magnify" viewBox="0 0 57.75 57.749997" height="77" preserveAspectRatio="xMidYMid meet" version="1.0"><defs><clipPath id="fa6a0d0675"><path d="M 0 0 L 57.5 0 L 57.5 57.5 L 0 57.5 Z M 0 0 " clip-rule="nonzero"/></clipPath><clipPath id="6bc8217db1"><path d="M 0 0 L 57.351562 0 L 57.351562 57.351562 L 0 57.351562 Z M 0 0 " clip-rule="nonzero"/></clipPath><clipPath id="776ccdc2a4"><path d="M 0 1 L 57.351562 1 L 57.351562 57 L 0 57 Z M 0 1 " clip-rule="nonzero"/></clipPath><clipPath id="cb5437c51d"><path d="M 0 0 L 57.351562 0 L 57.351562 57.351562 L 0 57.351562 Z M 0 0 " clip-rule="nonzero"/></clipPath><clipPath id="b6fa2a2951"><rect x="0" width="58" y="0" height="58"/></clipPath></defs><g clip-path="url(#fa6a0d0675)"><path fill="#ffffff" d="M 0 0 L 57.5 0 L 57.5 57.5 L 0 57.5 Z M 0 0 " fill-opacity="1" fill-rule="nonzero"/><g transform="matrix(1, 0, 0, 1, 0, 0.000000000000003457)"><g clip-path="url(#b6fa2a2951)"><g clip-path="url(#6bc8217db1)"><path fill="#fdf9f2" d="M 0 0 L 57.351562 0 L 57.351562 57.351562 L 0 57.351562 Z M 0 0 " fill-opacity="1" fill-rule="nonzero"/></g><g clip-path="url(#776ccdc2a4)"><path fill="#fdf9f2" d="M 0 1.148438 L 16.058594 1.148438 M 18.351562 1.148438 L 22.941406 1.148438 M 25.234375 1.148438 L 27.527344 1.148438 M 32.117188 1.148438 L 34.410156 1.148438 M 36.707031 1.148438 L 39 1.148438 M 41.292969 1.148438 L 57.351562 1.148438 M 0 3.441406 L 2.292969 3.441406 M 13.765625 3.441406 L 16.058594 3.441406 M 18.351562 3.441406 L 20.648438 3.441406 M 22.941406 3.441406 L 32.117188 3.441406 M 41.292969 3.441406 L 43.585938 3.441406 M 55.058594 3.441406 L 57.351562 3.441406 M 0 5.734375 L 2.292969 5.734375 M 4.589844 5.734375 L 11.46875 5.734375 M 13.765625 5.734375 L 16.058594 5.734375 M 18.351562 5.734375 L 22.941406 5.734375 M 25.234375 5.734375 L 27.527344 5.734375 M 29.824219 5.734375 L 34.410156 5.734375 M 41.292969 5.734375 L 43.585938 5.734375 M 45.882812 5.734375 L 52.761719 5.734375 M 55.058594 5.734375 L 57.351562 5.734375 M 0 8.027344 L 2.292969 8.027344 M 4.589844 8.027344 L 11.46875 8.027344 M 13.765625 8.027344 L 16.058594 8.027344 M 22.941406 8.027344 L 25.234375 8.027344 M 27.527344 8.027344 L 32.117188 8.027344 M 34.410156 8.027344 L 39 8.027344 M 41.292969 8.027344 L 43.585938 8.027344 M 45.882812 8.027344 L 52.761719 8.027344 M 55.058594 8.027344 L 57.351562 8.027344 M 0 10.324219 L 2.292969 10.324219 M 4.589844 10.324219 L 11.46875 10.324219 M 13.765625 10.324219 L 16.058594 10.324219 M 18.351562 10.324219 L 27.527344 10.324219 M 32.117188 10.324219 L 34.410156 10.324219 M 36.707031 10.324219 L 39 10.324219 M 41.292969 10.324219 L 43.585938 10.324219 M 45.882812 10.324219 L 52.761719 10.324219 M 55.058594 10.324219 L 57.351562 10.324219 M 0 12.617188 L 2.292969 12.617188 M 13.765625 12.617188 L 16.058594 12.617188 M 32.117188 12.617188 L 34.410156 12.617188 M 41.292969 12.617188 L 43.585938 12.617188 M 55.058594 12.617188 L 57.351562 12.617188 M 0 14.910156 L 16.058594 14.910156 M 18.351562 14.910156 L 20.648438 14.910156 M 22.941406 14.910156 L 25.234375 14.910156 M 27.527344 14.910156 L 29.824219 14.910156 M 32.117188 14.910156 L 34.410156 14.910156 M 36.707031 14.910156 L 39 14.910156 M 41.292969 14.910156 L 57.351562 14.910156 M 27.527344 17.207031 L 34.410156 17.207031 M 36.707031 17.207031 L 39 17.207031 M 0 19.5 L 2.292969 19.5 M 6.882812 19.5 L 22.941406 19.5 M 27.527344 19.5 L 29.824219 19.5 M 32.117188 19.5 L 41.292969 19.5 M 45.882812 19.5 L 48.175781 19.5 M 50.46875 19.5 L 57.351562 19.5 M 0 21.792969 L 2.292969 21.792969 M 4.589844 21.792969 L 13.765625 21.792969 M 18.351562 21.792969 L 20.648438 21.792969 M 25.234375 21.792969 L 27.527344 21.792969 M 32.117188 21.792969 L 36.707031 21.792969 M 39 21.792969 L 41.292969 21.792969 M 43.585938 21.792969 L 55.058594 21.792969 M 4.589844 24.085938 L 11.46875 24.085938 M 13.765625 24.085938 L 16.058594 24.085938 M 20.648438 24.085938 L 22.941406 24.085938 M 25.234375 24.085938 L 27.527344 24.085938 M 34.410156 24.085938 L 39 24.085938 M 41.292969 24.085938 L 45.882812 24.085938 M 48.175781 24.085938 L 50.46875 24.085938 M 55.058594 24.085938 L 57.351562 24.085938 M 2.292969 26.382812 L 4.589844 26.382812 M 11.46875 26.382812 L 13.765625 26.382812 M 16.058594 26.382812 L 20.648438 26.382812 M 22.941406 26.382812 L 25.234375 26.382812 M 27.527344 26.382812 L 29.824219 26.382812 M 32.117188 26.382812 L 34.410156 26.382812 M 43.585938 26.382812 L 45.882812 26.382812 M 48.175781 26.382812 L 57.351562 26.382812 M 0 28.675781 L 2.292969 28.675781 M 9.175781 28.675781 L 11.46875 28.675781 M 13.765625 28.675781 L 18.351562 28.675781 M 20.648438 28.675781 L 27.527344 28.675781 M 34.410156 28.675781 L 39 28.675781 M 41.292969 28.675781 L 43.585938 28.675781 M 55.058594 28.675781 L 57.351562 28.675781 M 0 30.96875 L 2.292969 30.96875 M 4.589844 30.96875 L 6.882812 30.96875 M 9.175781 30.96875 L 11.46875 30.96875 M 16.058594 30.96875 L 18.351562 30.96875 M 20.648438 30.96875 L 22.941406 30.96875 M 27.527344 30.96875 L 32.117188 30.96875 M 34.410156 30.96875 L 41.292969 30.96875 M 45.882812 30.96875 L 48.175781 30.96875 M 52.761719 30.96875 L 55.058594 30.96875 M 0 33.265625 L 6.882812 33.265625 M 9.175781 33.265625 L 11.46875 33.265625 M 13.765625 33.265625 L 18.351562 33.265625 M 20.648438 33.265625 L 22.941406 33.265625 M 32.117188 33.265625 L 43.585938 33.265625 M 45.882812 33.265625 L 57.351562 33.265625 M 0 35.558594 L 2.292969 35.558594 M 4.589844 35.558594 L 9.175781 35.558594 M 22.941406 35.558594 L 25.234375 35.558594 M 27.527344 35.558594 L 29.824219 35.558594 M 32.117188 35.558594 L 41.292969 35.558594 M 43.585938 35.558594 L 45.882812 35.558594 M 48.175781 35.558594 L 52.761719 35.558594 M 55.058594 35.558594 L 57.351562 35.558594 M 0 37.851562 L 2.292969 37.851562 M 6.882812 37.851562 L 9.175781 37.851562 M 11.46875 37.851562 L 16.058594 37.851562 M 18.351562 37.851562 L 20.648438 37.851562 M 25.234375 37.851562 L 48.175781 37.851562 M 50.46875 37.851562 L 55.058594 37.851562 M 18.351562 40.144531 L 20.648438 40.144531 M 25.234375 40.144531 L 27.527344 40.144531 M 29.824219 40.144531 L 32.117188 40.144531 M 34.410156 40.144531 L 39 40.144531 M 45.882812 40.144531 L 48.175781 40.144531 M 50.46875 40.144531 L 55.058594 40.144531 M 0 42.441406 L 16.058594 42.441406 M 18.351562 42.441406 L 20.648438 42.441406 M 27.527344 42.441406 L 29.824219 42.441406 M 36.707031 42.441406 L 39 42.441406 M 41.292969 42.441406 L 43.585938 42.441406 M 45.882812 42.441406 L 48.175781 42.441406 M 55.058594 42.441406 L 57.351562 42.441406 M 0 44.734375 L 2.292969 44.734375 M 13.765625 44.734375 L 16.058594 44.734375 M 18.351562 44.734375 L 27.527344 44.734375 M 29.824219 44.734375 L 39 44.734375 M 45.882812 44.734375 L 48.175781 44.734375 M 55.058594 44.734375 L 57.351562 44.734375 M 0 47.027344 L 2.292969 47.027344 M 4.589844 47.027344 L 11.46875 47.027344 M 13.765625 47.027344 L 16.058594 47.027344 M 18.351562 47.027344 L 20.648438 47.027344 M 22.941406 47.027344 L 29.824219 47.027344 M 32.117188 47.027344 L 48.175781 47.027344 M 0 49.324219 L 2.292969 49.324219 M 4.589844 49.324219 L 11.46875 49.324219 M 13.765625 49.324219 L 16.058594 49.324219 M 18.351562 49.324219 L 20.648438 49.324219 M 22.941406 49.324219 L 25.234375 49.324219 M 27.527344 49.324219 L 36.707031 49.324219 M 41.292969 49.324219 L 43.585938 49.324219 M 52.761719 49.324219 L 57.351562 49.324219 M 0 51.617188 L 2.292969 51.617188 M 4.589844 51.617188 L 11.46875 51.617188 M 13.765625 51.617188 L 16.058594 51.617188 M 25.234375 51.617188 L 32.117188 51.617188 M 39 51.617188 L 41.292969 51.617188 M 45.882812 51.617188 L 57.351562 51.617188 M 0 53.910156 L 2.292969 53.910156 M 13.765625 53.910156 L 16.058594 53.910156 M 25.234375 53.910156 L 27.527344 53.910156 M 43.585938 53.910156 L 48.175781 53.910156 M 50.46875 53.910156 L 57.351562 53.910156 M 0 56.203125 L 16.058594 56.203125 M 18.351562 56.203125 L 20.648438 56.203125 M 27.527344 56.203125 L 29.824219 56.203125 M 36.707031 56.203125 L 41.292969 56.203125 M 48.175781 56.203125 L 50.46875 56.203125 M 55.058594 56.203125 L 57.351562 56.203125 " fill-opacity="1" fill-rule="nonzero"/></g><g clip-path="url(#cb5437c51d)"><path stroke-linecap="butt" transform="matrix(2.294069, 0, 0, 2.294069, 0.0000015, -0.00000099569)" fill="none" stroke-linejoin="miter" d="M -0.00000065386 0.500612 L 7.000048 0.500612 M 7.999569 0.500612 L 10.000312 0.500612 M 10.999833 0.500612 L 11.999353 0.500612 M 14.000097 0.500612 L 14.999617 0.500612 M 16.000841 0.500612 L 17.000361 0.500612 M 17.999881 0.500612 L 24.99993 0.500612 M -0.00000065386 1.500133 L 0.99952 1.500133 M 6.000528 1.500133 L 7.000048 1.500133 M 7.999569 1.500133 L 9.000792 1.500133 M 10.000312 1.500133 L 14.000097 1.500133 M 17.999881 1.500133 L 18.999402 1.500133 M 24.00041 1.500133 L 24.99993 1.500133 M -0.00000065386 2.499653 L 0.99952 2.499653 M 2.000743 2.499653 L 4.999304 2.499653 M 6.000528 2.499653 L 7.000048 2.499653 M 7.999569 2.499653 L 10.000312 2.499653 M 10.999833 2.499653 L 11.999353 2.499653 M 13.000576 2.499653 L 14.999617 2.499653 M 17.999881 2.499653 L 18.999402 2.499653 M 20.000625 2.499653 L 22.999187 2.499653 M 24.00041 2.499653 L 24.99993 2.499653 M -0.00000065386 3.499173 L 0.99952 3.499173 M 2.000743 3.499173 L 4.999304 3.499173 M 6.000528 3.499173 L 7.000048 3.499173 M 10.000312 3.499173 L 10.999833 3.499173 M 11.999353 3.499173 L 14.000097 3.499173 M 14.999617 3.499173 L 17.000361 3.499173 M 17.999881 3.499173 L 18.999402 3.499173 M 20.000625 3.499173 L 22.999187 3.499173 M 24.00041 3.499173 L 24.99993 3.499173 M -0.00000065386 4.500397 L 0.99952 4.500397 M 2.000743 4.500397 L 4.999304 4.500397 M 6.000528 4.500397 L 7.000048 4.500397 M 7.999569 4.500397 L 11.999353 4.500397 M 14.000097 4.500397 L 14.999617 4.500397 M 16.000841 4.500397 L 17.000361 4.500397 M 17.999881 4.500397 L 18.999402 4.500397 M 20.000625 4.500397 L 22.999187 4.500397 M 24.00041 4.500397 L 24.99993 4.500397 M -0.00000065386 5.499917 L 0.99952 5.499917 M 6.000528 5.499917 L 7.000048 5.499917 M 14.000097 5.499917 L 14.999617 5.499917 M 17.999881 5.499917 L 18.999402 5.499917 M 24.00041 5.499917 L 24.99993 5.499917 M -0.00000065386 6.499438 L 7.000048 6.499438 M 7.999569 6.499438 L 9.000792 6.499438 M 10.000312 6.499438 L 10.999833 6.499438 M 11.999353 6.499438 L 13.000576 6.499438 M 14.000097 6.499438 L 14.999617 6.499438 M 16.000841 6.499438 L 17.000361 6.499438 M 17.999881 6.499438 L 24.99993 6.499438 M 11.999353 7.500661 L 14.999617 7.500661 M 16.000841 7.500661 L 17.000361 7.500661 M -0.00000065386 8.500181 L 0.99952 8.500181 M 3.000263 8.500181 L 10.000312 8.500181 M 11.999353 8.500181 L 13.000576 8.500181 M 14.000097 8.500181 L 17.999881 8.500181 M 20.000625 8.500181 L 21.000146 8.500181 M 21.999666 8.500181 L 24.99993 8.500181 M -0.00000065386 9.499702 L 0.99952 9.499702 M 2.000743 9.499702 L 6.000528 9.499702 M 7.999569 9.499702 L 9.000792 9.499702 M 10.999833 9.499702 L 11.999353 9.499702 M 14.000097 9.499702 L 16.000841 9.499702 M 17.000361 9.499702 L 17.999881 9.499702 M 18.999402 9.499702 L 24.00041 9.499702 M 2.000743 10.499222 L 4.999304 10.499222 M 6.000528 10.499222 L 7.000048 10.499222 M 9.000792 10.499222 L 10.000312 10.499222 M 10.999833 10.499222 L 11.999353 10.499222 M 14.999617 10.499222 L 17.000361 10.499222 M 17.999881 10.499222 L 20.000625 10.499222 M 21.000146 10.499222 L 21.999666 10.499222 M 24.00041 10.499222 L 24.99993 10.499222 M 0.99952 11.500445 L 2.000743 11.500445 M 4.999304 11.500445 L 6.000528 11.500445 M 7.000048 11.500445 L 9.000792 11.500445 M 10.000312 11.500445 L 10.999833 11.500445 M 11.999353 11.500445 L 13.000576 11.500445 M 14.000097 11.500445 L 14.999617 11.500445 M 18.999402 11.500445 L 20.000625 11.500445 M 21.000146 11.500445 L 24.99993 11.500445 M -0.00000065386 12.499966 L 0.99952 12.499966 M 3.999784 12.499966 L 4.999304 12.499966 M 6.000528 12.499966 L 7.999569 12.499966 M 9.000792 12.499966 L 11.999353 12.499966 M 14.999617 12.499966 L 17.000361 12.499966 M 17.999881 12.499966 L 18.999402 12.499966 M 24.00041 12.499966 L 24.99993 12.499966 M -0.00000065386 13.499486 L 0.99952 13.499486 M 2.000743 13.499486 L 3.000263 13.499486 M 3.999784 13.499486 L 4.999304 13.499486 M 7.000048 13.499486 L 7.999569 13.499486 M 9.000792 13.499486 L 10.000312 13.499486 M 11.999353 13.499486 L 14.000097 13.499486 M 14.999617 13.499486 L 17.999881 13.499486 M 20.000625 13.499486 L 21.000146 13.499486 M 22.999187 13.499486 L 24.00041 13.499486 M -0.00000065386 14.50071 L 3.000263 14.50071 M 3.999784 14.50071 L 4.999304 14.50071 M 6.000528 14.50071 L 7.999569 14.50071 M 9.000792 14.50071 L 10.000312 14.50071 M 14.000097 14.50071 L 18.999402 14.50071 M 20.000625 14.50071 L 24.99993 14.50071 M -0.00000065386 15.50023 L 0.99952 15.50023 M 2.000743 15.50023 L 3.999784 15.50023 M 10.000312 15.50023 L 10.999833 15.50023 M 11.999353 15.50023 L 13.000576 15.50023 M 14.000097 15.50023 L 17.999881 15.50023 M 18.999402 15.50023 L 20.000625 15.50023 M 21.000146 15.50023 L 22.999187 15.50023 M 24.00041 15.50023 L 24.99993 15.50023 M -0.00000065386 16.49975 L 0.99952 16.49975 M 3.000263 16.49975 L 3.999784 16.49975 M 4.999304 16.49975 L 7.000048 16.49975 M 7.999569 16.49975 L 9.000792 16.49975 M 10.999833 16.49975 L 21.000146 16.49975 M 21.999666 16.49975 L 24.00041 16.49975 M 7.999569 17.499271 L 9.000792 17.499271 M 10.999833 17.499271 L 11.999353 17.499271 M 13.000576 17.499271 L 14.000097 17.499271 M 14.999617 17.499271 L 17.000361 17.499271 M 20.000625 17.499271 L 21.000146 17.499271 M 21.999666 17.499271 L 24.00041 17.499271 M -0.00000065386 18.500494 L 7.000048 18.500494 M 7.999569 18.500494 L 9.000792 18.500494 M 11.999353 18.500494 L 13.000576 18.500494 M 16.000841 18.500494 L 17.000361 18.500494 M 17.999881 18.500494 L 18.999402 18.500494 M 20.000625 18.500494 L 21.000146 18.500494 M 24.00041 18.500494 L 24.99993 18.500494 M -0.00000065386 19.500015 L 0.99952 19.500015 M 6.000528 19.500015 L 7.000048 19.500015 M 7.999569 19.500015 L 11.999353 19.500015 M 13.000576 19.500015 L 17.000361 19.500015 M 20.000625 19.500015 L 21.000146 19.500015 M 24.00041 19.500015 L 24.99993 19.500015 M -0.00000065386 20.499535 L 0.99952 20.499535 M 2.000743 20.499535 L 4.999304 20.499535 M 6.000528 20.499535 L 7.000048 20.499535 M 7.999569 20.499535 L 9.000792 20.499535 M 10.000312 20.499535 L 13.000576 20.499535 M 14.000097 20.499535 L 21.000146 20.499535 M -0.00000065386 21.500758 L 0.99952 21.500758 M 2.000743 21.500758 L 4.999304 21.500758 M 6.000528 21.500758 L 7.000048 21.500758 M 7.999569 21.500758 L 9.000792 21.500758 M 10.000312 21.500758 L 10.999833 21.500758 M 11.999353 21.500758 L 16.000841 21.500758 M 17.999881 21.500758 L 18.999402 21.500758 M 22.999187 21.500758 L 24.99993 21.500758 M -0.00000065386 22.500279 L 0.99952 22.500279 M 2.000743 22.500279 L 4.999304 22.500279 M 6.000528 22.500279 L 7.000048 22.500279 M 10.999833 22.500279 L 14.000097 22.500279 M 17.000361 22.500279 L 17.999881 22.500279 M 20.000625 22.500279 L 24.99993 22.500279 M -0.00000065386 23.499799 L 0.99952 23.499799 M 6.000528 23.499799 L 7.000048 23.499799 M 10.999833 23.499799 L 11.999353 23.499799 M 18.999402 23.499799 L 21.000146 23.499799 M 21.999666 23.499799 L 24.99993 23.499799 M -0.00000065386 24.49932 L 7.000048 24.49932 M 7.999569 24.49932 L 9.000792 24.49932 M 11.999353 24.49932 L 13.000576 24.49932 M 16.000841 24.49932 L 17.999881 24.49932 M 21.000146 24.49932 L 21.999666 24.49932 M 24.00041 24.49932 L 24.99993 24.49932 " stroke="#212121" stroke-width="1" stroke-opacity="1" stroke-miterlimit="4"/></g></g></g></g></svg>